<svg width="201" height="200" viewBox="0 0 201 200" fill="none" xmlns="http://www.w3.org/2000/svg">
<path d="M127.245 131.444C114.54 112.223 114.592 87.0462 127.324 67.8245C145.572 87.4118 171.559 99.7127 200.422 99.7127V38.4435C179.193 38.4435 161.938 21.2066 161.938 0H100.605C100.605 13.6328 103.35 26.6127 108.317 38.4435H100.814C79.5853 38.4435 62.3305 21.2066 62.3305 0H0.997281C0.997281 55.0013 45.7553 99.7127 100.814 99.7127C45.4415 99.7127 0.421875 144.685 0.421875 200H62.0953C62.0953 178.663 79.4546 161.321 100.814 161.321H107.795C102.801 173.231 100.03 186.289 100.03 200H161.703C161.703 178.663 179.062 161.321 200.422 161.321V99.7127C171.585 99.7127 145.572 111.935 127.245 131.444Z" fill="black"/>
</svg>
