<svg width="201" height="200" viewBox="0 0 201 200" fill="none" xmlns="http://www.w3.org/2000/svg">
<path d="M186.98 74.9115C195.532 67.5642 200.422 59.0141 200.422 49.9149C200.422 22.3558 155.652 0 100.422 0C45.1917 0 0.421875 22.3558 0.421875 49.9149C0.421875 59.0141 5.31192 67.5642 13.8632 74.9115C31.1487 60.0076 63.4449 49.9933 100.422 49.9933C137.399 49.9933 169.695 60.0076 186.98 74.9115Z" fill="black"/>
<path d="M200.422 99.9369C200.422 90.8115 195.532 82.2614 186.98 74.9141C169.695 89.8179 137.399 99.8323 100.422 99.8323C63.4449 99.8323 31.1487 89.8179 13.8632 74.9141C5.31192 82.2614 0.421875 90.8115 0.421875 99.9369C0.421875 109.062 5.28588 117.56 13.811 124.934C31.0966 110.003 63.4187 99.9369 100.422 99.9369C137.425 99.9369 169.747 110.003 187.033 124.934C195.558 117.56 200.422 109.036 200.422 99.9369Z" fill="black"/>
<path d="M13.811 124.93C5.28588 132.277 0.421875 140.827 0.421875 149.952C0.421875 177.59 45.1917 199.998 100.422 199.998C155.652 199.998 200.422 177.59 200.422 149.952C200.422 140.827 195.558 132.277 187.033 124.93C169.747 139.834 137.425 149.874 100.422 149.874C63.4187 149.874 31.0966 139.834 13.811 124.93Z" fill="black"/>
</svg>
