<svg width="201" height="200" viewBox="0 0 201 200" fill="none" xmlns="http://www.w3.org/2000/svg">
<path d="M182.141 100L200.395 85.7741C194.885 46.7573 166.908 14.2782 128.863 0C118.583 3.92259 108.966 9.15272 100.435 15.4812C119.193 29.2626 133.208 48.3525 139.964 70.319L100.197 99.9477L60.8008 70.5806C67.5301 48.5094 81.5982 29.3149 100.435 15.4812C91.8777 9.15272 82.2606 3.92259 71.9811 0C33.9098 14.2782 5.93254 46.705 0.421875 85.7741L18.7024 100L0.421875 114.226C5.93254 153.243 33.9098 185.722 71.9811 200C82.2606 196.077 91.8777 190.847 100.435 184.519C81.5982 170.685 67.5301 151.491 60.8008 129.419L100.197 100.052L139.964 129.681C133.208 151.647 119.193 170.737 100.435 184.519C108.966 190.847 118.583 196.077 128.863 200C166.934 185.722 194.911 153.295 200.422 114.226L182.141 100Z" fill="black"/>
</svg>
