<svg width="201" height="200" viewBox="0 0 201 200" fill="none" xmlns="http://www.w3.org/2000/svg">
<path d="M53.6384 53.3005C60.4898 30.4537 78.0108 12.1815 100.422 4.28704C92.6028 1.51615 84.1822 0 75.3955 0C33.9729 0 0.421875 33.5644 0.421875 74.9448C0.421875 83.728 1.93868 92.1714 4.73679 99.9874C12.6343 77.6373 30.835 60.1754 53.6384 53.3005Z" fill="black"/>
<path d="M53.6384 146.697C30.835 139.796 12.6343 122.335 4.73679 99.9844C1.93868 107.8 0.421875 116.244 0.421875 125.027C0.421875 166.434 33.9729 199.998 75.3955 199.998C84.1822 199.998 92.6028 198.482 100.422 195.711C78.0108 187.816 60.516 169.544 53.6384 146.697Z" fill="black"/>
<path d="M146.054 99.9882C148.852 92.1721 150.369 83.7288 150.369 74.9456C150.369 67.4171 149.27 60.15 147.178 53.3012C140.301 51.21 132.978 50.0859 125.421 50.0859C116.66 50.0859 108.24 51.6021 100.421 54.373C92.6021 51.6021 84.1814 50.0859 75.3948 50.0859C67.8372 50.0859 60.5152 51.21 53.6376 53.3012C51.5455 60.15 50.4473 67.4171 50.4473 74.9456C50.4473 83.7288 51.9641 92.1721 54.7622 99.9882C51.9641 107.804 50.4473 116.248 50.4473 125.031C50.4473 132.559 51.5717 139.852 53.6376 146.701C60.5152 148.792 67.8372 149.917 75.3948 149.917C84.1814 149.917 92.6021 148.4 100.421 145.629C108.24 148.4 116.66 149.917 125.421 149.917C132.978 149.917 140.301 148.792 147.178 146.701C149.244 139.852 150.369 132.559 150.369 125.031C150.369 116.248 148.852 107.804 146.054 99.9882Z" fill="black"/>
<path d="M147.179 53.3005C169.983 60.1754 188.209 77.6373 196.107 99.9874C198.905 92.1714 200.422 83.728 200.422 74.9448C200.422 33.5644 166.844 0 125.422 0C116.661 0 108.241 1.51615 100.422 4.28704C122.833 12.2076 140.328 30.4537 147.179 53.3005Z" fill="black"/>
<path d="M147.179 146.697C140.302 169.544 122.807 187.79 100.422 195.711C108.241 198.482 116.661 199.998 125.422 199.998C166.844 199.998 200.422 166.434 200.422 125.027C200.422 116.244 198.905 107.8 196.107 99.9844C188.209 122.335 169.983 139.796 147.179 146.697Z" fill="black"/>
</svg>
