<svg width="201" height="200" viewBox="0 0 201 200" fill="none" xmlns="http://www.w3.org/2000/svg">
<path d="M0.421875 101.305C1.10197 155.503 44.9157 199.317 99.114 199.997C80.0452 199.029 63.592 176.874 55.5094 144.883C23.5449 136.8 1.3897 120.373 0.421875 101.305Z" fill="black"/>
<path d="M99.114 0C44.9157 0.680095 1.10197 44.4939 0.421875 98.6922C1.3897 79.6234 23.5449 63.1965 55.5094 55.1138C63.592 23.1232 80.0452 0.967827 99.114 0Z" fill="black"/>
<path d="M145.309 144.883C137.226 176.874 120.799 199.029 101.73 199.997C155.903 199.317 199.743 155.503 200.423 101.305C199.455 120.373 177.273 136.827 145.309 144.883Z" fill="black"/>
<path d="M200.423 98.6922C199.743 44.4939 155.903 0.680095 101.73 0C120.799 0.967827 137.226 23.1232 145.309 55.1138C177.273 63.1965 199.455 79.6234 200.423 98.6922Z" fill="black"/>
<path d="M145.309 55.1096C131.811 51.6829 116.562 49.7734 100.423 49.7734C84.2834 49.7734 69.0073 51.7091 55.5101 55.1096C52.0834 68.6068 50.1738 83.8566 50.1738 99.9958C50.1738 116.135 52.0834 131.385 55.5101 144.882C69.0073 148.283 84.2572 150.218 100.423 150.218C116.588 150.218 131.811 148.309 145.309 144.882C148.735 131.385 150.645 116.135 150.645 99.9958C150.645 83.8566 148.735 68.6068 145.309 55.1096Z" fill="black"/>
</svg>
