<svg width="201" height="200" viewBox="0 0 201 200" fill="none" xmlns="http://www.w3.org/2000/svg">
<path d="M155.494 100C180.658 83.4729 197.932 55.9886 200.422 24.5032L175.861 0H139.111V16.5011C139.111 37.7092 121.759 55.204 100.422 55.204C79.085 55.204 61.7324 37.7092 61.7324 16.5011V0H24.9566L0.421875 24.477C2.91205 55.9886 20.1858 83.4729 45.3497 100C61.1557 89.5921 80.1072 83.5252 100.422 83.5252C120.736 83.5252 139.688 89.5921 155.494 100Z" fill="black"/>
<path d="M155.494 100C139.688 110.408 120.736 116.475 100.422 116.475C80.1072 116.475 61.1557 110.408 45.3497 100C20.1858 116.553 2.88583 144.064 0.421875 175.575L24.9303 200H61.7324V183.499C61.7324 162.291 79.085 144.796 100.422 144.796C121.759 144.796 139.111 162.291 139.111 183.499V200H175.887L200.422 175.549C197.932 144.038 180.658 116.527 155.494 100Z" fill="black"/>
</svg>
