<svg width="201" height="200" viewBox="0 0 201 200" fill="none" xmlns="http://www.w3.org/2000/svg">
<path d="M165.354 0H35.8037L0.421875 35.3557V164.671L35.7776 200H165.38L200.422 164.984V35.0418L165.354 0ZM179.344 178.923C166.844 191.396 134.679 180.492 100.422 154.367C66.1646 180.492 33.9731 191.396 21.4993 178.923C8.99927 166.449 19.9041 134.257 46.0547 100C19.9041 65.7427 8.99927 33.5513 21.4993 21.0774C33.9731 8.60356 66.1646 19.5084 100.422 45.6329C134.679 19.5084 166.844 8.60356 179.344 21.0774C191.818 33.5513 180.913 65.7427 154.763 100C180.913 134.257 191.818 166.449 179.344 178.923Z" fill="black"/>
<path d="M100.422 45.6328C90.8246 52.955 81.0443 61.5062 71.4732 71.0512C61.902 80.6224 53.3769 90.4027 46.0547 100C53.3769 109.597 61.902 119.378 71.4732 128.949C81.0443 138.494 90.8246 147.045 100.422 154.367C110.019 147.019 119.8 138.494 129.344 128.949C138.889 119.404 147.414 109.623 154.763 100C147.414 90.3765 138.889 80.5962 129.344 71.0512C119.8 61.5062 110.019 52.9811 100.422 45.6328Z" fill="black"/>
</svg>
