<svg width="201" height="200" viewBox="0 0 201 200" fill="none" xmlns="http://www.w3.org/2000/svg">
<path d="M149.291 51.1701C153.188 63.59 155.62 77.6311 156.248 92.6134L107.863 44.2411C122.823 44.8425 136.894 47.3003 149.317 51.1962C139.718 20.6301 121.437 0 100.435 0C79.4333 0 61.1777 20.6301 51.5792 51.1701C64.0024 47.2742 78.0471 44.8425 93.0072 44.2149L44.6222 92.5873C45.2237 77.6311 47.6822 63.5639 51.5792 51.1701C21.0574 60.74 0.421875 79.0169 0.421875 99.9869C0.421875 120.957 21.0574 139.234 51.5792 148.83C47.6822 136.41 45.2499 122.369 44.6222 107.413L93.0072 155.785C78.0471 155.184 63.9762 152.726 51.5792 148.83C61.1516 179.344 79.4333 200 100.435 200C121.437 200 139.692 179.37 149.291 148.856C136.868 152.752 122.823 155.184 107.837 155.811L156.222 107.439C155.62 122.395 153.162 136.462 149.265 148.882C179.786 139.312 200.422 121.035 200.422 100.039C200.422 79.043 179.786 60.7923 149.265 51.1962L149.291 51.1701Z" fill="black"/>
</svg>
