<svg width="201" height="200" viewBox="0 0 201 200" fill="none" xmlns="http://www.w3.org/2000/svg">
<path d="M100.422 138.192C81.6266 138.192 64.0612 136.229 49.0612 132.773L19.8203 174.213L40.3701 199.999H160.449L181.025 174.187L151.757 132.773C136.757 136.229 119.192 138.192 100.422 138.192Z" fill="black"/>
<path d="M72.7779 100L49.0606 67.2254C64.0606 63.7699 81.6261 61.8065 100.422 61.8065C119.218 61.8065 136.757 63.7699 151.757 67.2254L181.129 25.6807L160.657 0H40.1601L19.7151 25.6545L49.0606 67.2254C19.9245 73.9008 0.421875 86.0736 0.421875 100C0.421875 113.927 19.9245 126.1 49.0606 132.775L72.7779 100Z" fill="black"/>
<path d="M151.756 67.2266L128.039 100.002L151.756 132.777C180.919 126.101 200.421 113.928 200.421 100.002C200.421 86.0748 180.919 73.902 151.756 67.2266Z" fill="black"/>
</svg>
