<svg width="201" height="200" viewBox="0 0 201 200" fill="none" xmlns="http://www.w3.org/2000/svg">
<path d="M150.376 0C140.917 7.21757 132.48 15.6904 125.379 25.1569C141.153 46.1559 150.454 72.045 150.454 100C150.454 127.955 141.153 153.818 125.379 174.817C132.48 184.283 140.917 192.756 150.376 200C180.875 176.674 200.422 140.533 200.422 100.026C200.422 59.5188 180.875 23.3264 150.376 0.0523013V0Z" fill="black"/>
<path d="M125.377 25.1569C118.276 15.6904 109.865 7.21757 100.406 0C90.8688 7.29603 82.3797 15.8734 75.2266 25.4446C91.0526 46.4174 100.328 72.1496 100.328 100C100.328 72.045 109.629 46.1559 125.377 25.1569Z" fill="black"/>
<path d="M75.2539 174.532C82.3808 184.103 90.8699 192.654 100.407 199.977C109.866 192.733 118.277 184.26 125.378 174.794C109.631 153.795 100.329 127.932 100.329 99.9766C100.329 127.775 91.0537 153.559 75.2539 174.532Z" fill="black"/>
<path d="M75.2287 25.4484C68.1541 16.0341 59.7695 7.58747 50.3106 0.34375C19.9163 23.7747 0.421875 59.8103 0.421875 99.9777C0.421875 140.145 19.9163 176.181 50.3106 199.585C59.7695 192.368 68.1804 183.921 75.2549 174.507C59.6123 153.534 50.3892 127.776 50.3892 99.9515C50.3892 72.1272 59.5861 46.3427 75.2287 25.3961V25.4484Z" fill="black"/>
</svg>
