<svg width="201" height="200" viewBox="0 0 201 200" fill="none" xmlns="http://www.w3.org/2000/svg">
<g id="Vrstva_1" clip-path="url(#clip0_5407_4398)">
<path id="Vector" d="M61.7696 99.9987C61.7696 122.552 64.6571 143.353 69.5242 160.081C62.4688 184.323 51.2507 200 38.6139 200C19.3217 200 3.33205 163.462 0.421875 115.686L15.5337 99.9987L0.421875 84.3143C3.33205 36.5378 19.3217 0 38.6139 0C51.2507 0 62.4688 15.674 69.5242 39.9186C64.6571 56.6472 61.7696 77.4484 61.7696 99.9987Z" fill="black"/>
<path id="Vector_2" d="M123.589 99.9987C123.589 122.549 126.477 143.353 131.344 160.081C124.289 184.323 113.07 199.997 100.434 199.997C87.7969 199.997 76.5788 184.323 69.5234 160.081C74.3905 143.353 77.278 122.549 77.278 99.9987C77.278 77.4484 74.3905 56.6446 69.5234 39.9159C76.5788 15.674 87.7969 0 100.434 0C113.07 0 124.289 15.674 131.344 39.9159C126.477 56.6446 123.589 77.4484 123.589 99.9987Z" fill="black"/>
<path id="Vector_3" d="M184.907 99.9987L200.421 116.101C197.443 163.674 181.488 200 162.254 200C149.617 200 138.399 184.323 131.344 160.081C136.211 143.353 139.098 122.552 139.098 99.9987C139.098 77.4458 136.211 56.6472 131.344 39.9186C138.399 15.674 149.617 0 162.254 0C181.488 0 197.443 36.3264 200.421 83.8992L184.907 99.9987Z" fill="black"/>
</g>
<defs>
<clipPath id="clip0_5407_4398">
<rect width="200" height="200" fill="white" transform="translate(0.421875)"/>
</clipPath>
</defs>
</svg>
