<svg width="65" height="65" viewBox="0 0 65 65" fill="none" xmlns="http://www.w3.org/2000/svg">
<path d="M64.3469 15.6909L48.8572 0.201172L15.6477 0.231171L0.167969 15.7009L0.187968 47.7404L16.7977 64.2901L48.1972 64.3701L64.3369 48.2504V15.6909H64.3469ZM28.6675 40.9005C28.2075 41.7005 27.3675 42.1905 26.4475 42.1905H18.2077C17.2777 42.1905 16.7077 41.1805 17.1677 40.3805L30.9575 16.3009C31.4175 15.4909 32.5774 15.4909 33.0374 16.3009L37.1574 23.4908C37.6174 24.3008 37.6174 25.2808 37.1574 26.0807L28.6675 40.9005ZM46.2772 42.2005H36.2274C35.2874 42.2005 34.6974 41.2005 35.1674 40.3905L40.1973 31.8007C40.6673 30.9907 41.8473 30.9907 42.3173 31.8007L47.3472 40.3905C47.8172 41.2005 47.2272 42.2005 46.2872 42.2005H46.2772Z" fill="black"/>
</svg>
