<svg width="201" height="200" viewBox="0 0 201 200" fill="none" xmlns="http://www.w3.org/2000/svg">
<g id="Vrstva_1" clip-path="url(#clip0_5407_10698)">
<path id="Vector" d="M100.101 82.5495C78.6391 82.5495 58.5999 88.935 41.5896 100.001C24.0141 88.5669 9.68057 72.1332 0.371094 52.5904L50.3067 0H151.519L200.371 51.4521C191.081 71.4936 176.532 88.3424 158.612 100.001C141.607 88.9324 121.558 82.5495 100.101 82.5495Z" fill="black"/>
<path id="Vector_2" d="M151.52 199.999H50.3081L0.375 147.408C9.67952 127.865 24.0155 111.434 41.5935 100C58.6038 111.066 78.648 117.449 100.105 117.449C121.562 117.449 141.611 111.064 158.616 100C176.534 111.656 191.083 128.502 200.37 148.549L151.52 199.999Z" fill="black"/>
</g>
<defs>
<clipPath id="clip0_5407_10698">
<rect width="200" height="200" fill="white" transform="translate(0.421875)"/>
</clipPath>
</defs>
</svg>
