<svg width="65" height="49" viewBox="0 0 65 49" fill="none" xmlns="http://www.w3.org/2000/svg">
<path d="M54.3555 4.58517C50.2019 2.70228 45.7606 1.33387 41.1174 0.554688C40.5471 1.55357 39.8809 2.89709 39.4216 3.96586C34.4857 3.24667 29.5953 3.24667 24.7502 3.96586C24.2909 2.89709 23.6096 1.55357 23.0342 0.554688C18.386 1.33387 13.9396 2.7073 9.78598 4.59514C1.40804 16.8612 -0.863076 28.8226 0.272487 40.6141C5.82917 44.6345 11.2143 47.0768 16.5085 48.675C17.8157 46.9319 18.9815 45.0791 19.9858 43.1263C18.073 42.4221 16.241 41.5531 14.51 40.5442C14.9692 40.2146 15.4184 39.87 15.8524 39.5153C26.4106 44.3 37.8823 44.3 48.3144 39.5153C48.7534 39.87 49.2026 40.2146 49.6568 40.5442C47.9206 41.558 46.0836 42.427 44.1708 43.1313C45.1752 45.0791 46.336 46.937 47.6481 48.6799C52.9475 47.0818 58.3376 44.6396 63.8943 40.6141C65.2267 26.9447 61.6181 15.0932 54.3555 4.58517ZM21.4242 33.3624C18.2548 33.3624 15.6555 30.4956 15.6555 27.0046C15.6555 23.5136 18.1993 20.6419 21.4242 20.6419C24.6493 20.6419 27.2484 23.5086 27.1929 27.0046C27.1979 30.4956 24.6493 33.3624 21.4242 33.3624ZM42.7425 33.3624C39.5731 33.3624 36.9739 30.4956 36.9739 27.0046C36.9739 23.5136 39.5175 20.6419 42.7425 20.6419C45.9675 20.6419 48.5667 23.5086 48.5112 27.0046C48.5112 30.4956 45.9675 33.3624 42.7425 33.3624Z" fill="black"/>
</svg>
