<svg width="64" height="65" viewBox="0 0 64 65" fill="none" xmlns="http://www.w3.org/2000/svg">
<path d="M15.8698 0.176331H15.8531C12.8413 0.176331 9.95502 1.37217 7.83005 3.49625L3.32913 7.99528C1.20416 10.1194 0.0078125 13.0128 0.0078125 16.0149C0.0078125 19.0254 1.20416 21.9105 3.32913 24.0346L11.4442 32.1462L32.0079 11.5912L23.9012 3.48789C21.7762 1.36381 18.8816 0.167969 15.8782 0.167969L15.8698 0.176331Z" fill="black"/>
<path d="M48.1292 64.1666C51.1158 64.1666 53.9854 62.9791 56.102 60.8634L60.6949 56.2723C62.8115 54.1566 63.9995 51.2966 63.9995 48.3029V48.236C63.9995 45.2505 62.8115 42.3822 60.6949 40.2665L52.5715 32.1465L32.0078 52.7015L40.1647 60.855C42.2813 62.9707 45.1425 64.1582 48.1375 64.1582L48.1292 64.1666Z" fill="black"/>
<path d="M0 48.2457V48.3043C0 51.2897 1.18797 54.158 3.30458 56.2737L7.89753 60.8648C10.0141 62.9805 12.8753 64.168 15.8704 64.168C18.857 64.168 21.7266 62.9805 23.8348 60.8731L32.0001 52.7113L11.4364 32.1562L3.30458 40.2763C1.18797 42.392 0 45.2603 0 48.2457Z" fill="black"/>
<path d="M60.6698 8.00505L56.1773 3.50602C54.0439 1.37357 51.1577 0.177734 48.1375 0.177734C45.1174 0.177734 42.2311 1.37357 40.0978 3.50602L32.0078 11.6009L52.5715 32.156L60.6782 24.0444C62.8032 21.9203 63.9995 19.0268 63.9995 16.0247C63.9995 13.0142 62.8032 10.1291 60.6782 7.99669L60.6698 8.00505Z" fill="black"/>
</svg>
