<svg width="64" height="65" viewBox="0 0 64 65" fill="none" xmlns="http://www.w3.org/2000/svg">
<g clip-path="url(#clip0_7917_58207)">
<path d="M31.9958 0.175781C25.5699 0.175781 19.579 2.07487 14.5671 5.33761L24.4152 15.1844C26.7329 14.1387 29.2932 13.5614 31.9958 13.5614C42.2623 13.5614 50.6126 21.9107 50.6126 32.1758C50.6126 34.878 50.0353 37.438 48.9978 39.7554L58.8459 49.6022C62.1007 44.5909 64 38.6009 64 32.1758C64 14.5068 49.6755 0.175781 31.9958 0.175781ZM39.5011 49.2006C37.2085 50.2213 34.6649 50.7818 31.9958 50.7818C21.7377 50.7818 13.3874 42.4325 13.3874 32.1758C13.3874 29.5154 13.948 26.9721 14.9688 24.6798L5.1123 14.8247C1.87423 19.8275 0 25.7841 0 32.1758C0 49.8448 14.3245 64.1674 31.9958 64.1674C38.3967 64.1674 44.354 62.2934 49.3576 59.0558L39.5011 49.2006Z" fill="black"/>
<path d="M9.39626 0.167969H0V9.71359L5.1123 14.8252C7.5555 11.0354 10.7852 7.79777 14.5671 5.33816L9.39626 0.167969Z" fill="black"/>
<path d="M24.4152 15.1855C20.2066 17.0595 16.8262 20.4645 14.9688 24.681L39.5011 49.2018C43.7181 47.3445 47.1152 43.9563 48.9978 39.7565L24.4152 15.1855Z" fill="black"/>
<path d="M58.8457 49.6035C56.3774 53.385 53.1477 56.6059 49.3574 59.0571L54.453 64.152H63.9999V54.757L58.8457 49.6035Z" fill="black"/>
</g>
<defs>
<clipPath id="clip0_7917_58207">
<rect width="64" height="64" fill="white" transform="translate(0 0.167969)"/>
</clipPath>
</defs>
</svg>
