<svg xmlns="http://www.w3.org/2000/svg" viewBox="0 0 21 21" fill="none">
<path fill-rule="evenodd" clip-rule="evenodd" d="M20.4672 10.3477C20.4672 15.8036 16.0442 20.2266 10.5883 20.2266C5.13229 20.2266 0.709351 15.8036 0.709351 10.3477C0.709351 4.89169 5.13229 0.46875 10.5883 0.46875C16.0442 0.46875 20.4672 4.89169 20.4672 10.3477ZM15.6805 8.95797C16.4785 8.93097 17.1465 9.55224 17.176 10.3478C17.1858 10.9028 16.8739 11.4136 16.3777 11.6617C16.3876 11.8066 16.3876 11.9515 16.3777 12.0964C16.3777 14.3112 13.7994 16.1088 10.6194 16.1088C7.43953 16.1088 4.86114 14.3088 4.86114 12.0964C4.85126 11.9515 4.85126 11.8066 4.86114 11.6617C4.71625 11.5978 4.58628 11.5069 4.47323 11.4014C3.89125 10.8563 3.86425 9.94279 4.40934 9.36322C4.95444 8.78125 5.86791 8.75424 6.44747 9.29934C7.58684 8.52835 8.9251 8.10597 10.3002 8.0838L11.0295 4.65582V4.65099C11.0664 4.48392 11.2311 4.38074 11.3955 4.41762L13.8167 4.90147C13.9712 4.63123 14.2511 4.44946 14.5631 4.41762C15.1058 4.35857 15.5918 4.75153 15.6509 5.29421C15.7099 5.83689 15.317 6.32316 14.7743 6.38199C14.2316 6.44104 13.7453 6.04808 13.6865 5.5054L11.5722 5.06085L10.9314 8.14263C12.2894 8.17205 13.6106 8.59201 14.7352 9.35818C14.9905 9.11515 15.3268 8.97026 15.6805 8.95797ZM8.2867 10.3478C7.74161 10.3478 7.29706 10.7924 7.29706 11.3375C7.29706 11.8826 7.73919 12.3221 8.2867 12.3271C8.8318 12.3271 9.27635 11.8826 9.27635 11.3375C9.27635 10.7924 8.8318 10.3478 8.2867 10.3478ZM13.0358 14.0533V14.0926C13.1438 13.987 13.1462 13.8103 13.0407 13.7023C12.9348 13.5942 12.7581 13.5918 12.6501 13.6974C12.0486 14.1271 11.3217 14.3382 10.585 14.2989C9.84845 14.3334 9.12399 14.1123 8.52972 13.6777C8.42896 13.5967 8.2889 13.5967 8.19077 13.6777C8.07771 13.771 8.06059 13.9402 8.15389 14.0533C8.85639 14.5813 9.71563 14.8515 10.5949 14.8146C11.4741 14.8513 12.3335 14.5813 13.0358 14.0533ZM12.8516 12.3982H12.9008C13.4459 12.3761 13.8707 11.917 13.8487 11.3717C13.8487 10.8266 13.4042 10.3821 12.8591 10.3821C12.314 10.3821 11.8695 10.8266 11.8695 11.3717C11.8695 11.9168 12.314 12.3614 12.8591 12.3614L12.8516 12.3982Z" fill="currentcolor"/>
</svg>