<svg width="65" height="65" viewBox="0 0 65 65" fill="none" xmlns="http://www.w3.org/2000/svg">
<g id="Small Icons">
<path id="Vector" d="M24.0066 20.7448C24.0066 22.3271 24.1914 23.8759 24.544 25.3494C23.1082 25.0229 21.6135 24.8471 20.0769 24.8471C13.5273 24.8471 7.7167 27.9699 4.05567 32.8005C1.50303 29.4517 0 25.274 0 20.7448C0 9.68524 8.98464 0.71875 20.0769 0.71875C24.5776 0.71875 28.734 2.20061 32.0844 4.69549C27.1806 8.33734 24.0066 14.1727 24.0066 20.7448Z" fill="black"/>
<path id="Vector_2" d="M64.1703 20.7448C64.1703 25.274 62.6589 29.4517 60.1062 32.8005C56.4452 27.9699 50.6346 24.8471 44.0851 24.8471C42.5484 24.8471 41.0538 25.0229 39.6179 25.3494C39.9706 23.8759 40.1553 22.3271 40.1553 20.7448C40.1553 14.1727 36.9813 8.34571 32.0859 4.69549C35.4363 2.19224 39.5927 0.71875 44.0851 0.71875C55.1773 0.71875 64.1703 9.68524 64.1703 20.7448Z" fill="black"/>
<path id="Vector_3" d="M24.544 40.2564C24.1914 41.7299 24.0066 43.2787 24.0066 44.861C24.0066 51.4331 27.1806 57.2685 32.0844 60.9103C28.734 63.4052 24.5776 64.887 20.0769 64.887C8.98464 64.887 0 55.9205 0 44.861C0 40.3317 1.50303 36.1541 4.05567 32.7969C7.7167 37.6359 13.5273 40.7587 20.0769 40.7587C21.6135 40.7587 23.1082 40.5829 24.544 40.2564Z" fill="black"/>
<path id="Vector_4" d="M64.1703 44.861C64.1703 55.9205 55.1773 64.887 44.0851 64.887C39.5927 64.887 35.4363 63.4136 32.0859 60.9103C36.9813 57.2601 40.1553 51.4331 40.1553 44.861C40.1553 43.2787 39.9706 41.7299 39.6179 40.2564C41.0538 40.5829 42.5484 40.7587 44.0851 40.7587C50.6346 40.7587 56.4452 37.6359 60.1062 32.7969C62.6589 36.1541 64.1703 40.3317 64.1703 44.861Z" fill="black"/>
</g>
</svg>
