<svg width="65" height="66" viewBox="0 0 65 66" fill="none" xmlns="http://www.w3.org/2000/svg">
<g id="Small Icons">
<path id="Vector" d="M32.0467 32.986V33.0279H32.0887V32.986H32.0467ZM32.0467 32.986V33.0279H32.0887V32.986H32.0467ZM48.6865 0.914062H32.0551V16.8913L48.1833 33.0279H64.1689V16.3965L48.6865 0.914062ZM32.0467 48.4516V65.083H48.024L64.1606 48.9548V32.9692H48.1162L32.0467 48.4516ZM32.0467 33.0279H32.0887V32.986H32.0467V33.0279ZM32.0467 32.986V33.0279H32.0887V32.986H32.0467ZM32.0467 32.986V33.0279H32.0887V32.986H32.0467ZM32.0719 16.9919V0.939224H15.474L0 16.4132V32.9692H16.0947L32.0719 16.9919ZM32.0467 32.986V33.0279H32.0887V32.986H32.0467ZM32.0467 32.986V33.0279H32.0887V32.986H32.0467ZM32.0467 48.4516L32.0971 32.9943L16.0947 32.9692L0.025161 48.5858V65.0578H15.4992L32.0551 48.4432L32.0467 48.4516ZM0.025161 64.932V65.0578H0.150966L0.025161 64.932ZM32.0467 32.986V33.0279H32.0887V32.986H32.0467ZM32.0467 32.986V33.0279H32.0887V32.986H32.0467ZM32.0467 32.986V33.0279H32.0887V32.986H32.0467Z" fill="black"/>
</g>
</svg>
