<svg width="65" height="65" viewBox="0 0 65 65" fill="none" xmlns="http://www.w3.org/2000/svg">
<g clip-path="url(#clip0_6849_43872)">
<path d="M64.1704 0C51.3115 0 39.8013 4.39651 32.0859 11.3269C33.9205 12.9714 35.5373 14.7585 36.9112 16.6631C40.2118 21.2442 42.0883 26.4965 42.0883 32.0929C42.0883 37.6892 40.2118 42.9331 36.9112 47.5058C35.5373 49.4104 33.9205 51.1976 32.0859 52.8421C39.8013 59.7724 51.3115 64.1689 64.1704 64.1689V37.8067L58.4656 32.0929L64.1704 26.3791V0Z" fill="black"/>
<path d="M27.2592 47.5058C23.9586 42.9331 22.0822 37.6724 22.0822 32.0845C22.0822 26.4965 23.9586 21.2358 27.2592 16.6631C28.6331 14.7585 30.2499 12.9714 32.0845 11.3269C24.3691 4.39651 12.8589 0 0 0V26.1945L5.88913 32.0929L0 37.9912V64.1689C12.8589 64.1689 24.3691 59.7724 32.0845 52.8421C30.2499 51.1976 28.6331 49.4104 27.2592 47.5058Z" fill="black"/>
</g>
<defs>
<clipPath id="clip0_6849_43872">
<rect width="64.1689" height="64.1689" fill="white"/>
</clipPath>
</defs>
</svg>
