<svg width="64" height="65" viewBox="0 0 64 65" fill="none" xmlns="http://www.w3.org/2000/svg">
<g clip-path="url(#clip0_7917_58362)">
<path d="M15.9979 32.1638C16.0649 32.1638 16.1403 32.1638 16.2073 32.1722H15.7969C7.05248 32.0633 0 24.9438 0 16.1742C0 7.40472 7.16137 0.167969 15.9979 0.167969C24.8344 0.167969 31.9958 7.33771 31.9958 16.1742H15.9812V32.1638H15.9979Z" fill="black"/>
<path d="M64.0003 16.1742C64.0003 24.9438 56.9562 32.0549 48.2118 32.1722H47.8014C47.8684 32.1638 47.9354 32.1638 48.0024 32.1638H48.0107V16.1742H31.9961C31.9961 7.33771 39.1658 0.167969 48.0024 0.167969C56.8389 0.167969 64.0003 7.33771 64.0003 16.1742Z" fill="black"/>
<path d="M31.9958 48.1955C31.9791 57.0153 24.8261 64.1683 15.9979 64.1683C7.16974 64.1683 0 56.9985 0 48.162C0 39.3254 7.05248 32.2729 15.7969 32.1724C15.8555 32.1641 15.9225 32.1641 15.9812 32.1641H15.9979C16.0649 32.1641 16.1403 32.1641 16.2073 32.1724H15.9812V48.1955H31.9958Z" fill="black"/>
<path d="M64.0003 48.162C64.0003 56.9985 56.8389 64.1683 48.0024 64.1683C39.1658 64.1683 32.0128 57.0153 31.9961 48.1955H48.0107V32.1724H47.8014C47.8684 32.1641 47.9354 32.1641 48.0024 32.1641H48.0107C48.0778 32.1641 48.1448 32.1641 48.2118 32.1724C56.9562 32.2813 64.0003 39.3924 64.0003 48.162Z" fill="black"/>
<path d="M15.9972 32.1641C16.0642 32.1641 16.1396 32.1641 16.2066 32.1724H15.9805C15.9805 32.1724 15.9888 32.1641 15.9972 32.1641Z" fill="black"/>
<path d="M47.8008 32.1717C39.0564 32.2722 31.9955 39.3917 31.9955 48.1613C31.9955 39.3917 24.9514 32.2806 16.207 32.1717C24.9514 32.0545 31.9955 24.9434 31.9955 16.1738C31.9955 24.9434 39.0564 32.0628 47.8008 32.1717Z" fill="black"/>
<path d="M48.0102 32.1641L47.8008 32.1724C47.8678 32.1641 47.9348 32.1641 48.0018 32.1641H48.0102Z" fill="black"/>
</g>
<defs>
<clipPath id="clip0_7917_58362">
<rect width="64" height="64" fill="white" transform="translate(0 0.167969)"/>
</clipPath>
</defs>
</svg>
