<svg width="65" height="65" viewBox="0 0 65 65" fill="none" xmlns="http://www.w3.org/2000/svg">
<path d="M27.1562 31.5099V22.493C27.1562 21.728 27.7702 21.109 28.5291 21.109H35.1899C35.5935 21.109 35.9212 20.7787 35.9212 20.3718V17.4856C35.9212 16.7205 36.5352 16.1016 37.2941 16.1016H46.5247C47.2836 16.1016 47.8976 16.7205 47.8976 17.4856V49.8115C47.8976 51.3659 49.1463 52.6248 50.6881 52.6248H62.7887C63.5476 52.6248 64.1615 53.2437 64.1615 54.0088V63.3143C64.1615 64.0793 63.5476 64.6983 62.7887 64.6983H50.3122C42.5372 64.6983 36.2351 58.3451 36.2351 50.507V33.6451C36.2351 33.2382 35.9074 32.9079 35.5073 32.9079L28.5257 32.8905C27.7668 32.8905 27.1562 32.268 27.1562 31.5065V31.5099Z" fill="black"/>
<path d="M43.25 1.42147V11.4886C43.25 11.9789 43.6467 12.3788 44.1331 12.3788H51.532C52.0184 12.3788 52.4151 12.7787 52.4151 13.269V31.4906C52.4151 31.9809 52.8118 32.3808 53.2981 32.3808H63.2842C63.7706 32.3808 64.1672 31.9809 64.1672 31.4906V1.42147C64.1672 0.931152 63.7706 0.53125 63.2842 0.53125H44.1331C43.6467 0.53125 43.25 0.931152 43.25 1.42147Z" fill="black"/>
<path d="M27.8455 51.6374C28.4132 50.6625 29.8231 50.6625 30.3846 51.6374L36.4174 62.0273C36.9851 63.0021 36.2739 64.216 35.1447 64.216H23.0791C21.9499 64.216 21.245 63.0021 21.8064 62.0273L27.8455 51.6374Z" fill="black"/>
<path d="M24.1958 44.7238C24.7448 43.7553 24.7448 42.5603 24.1958 41.5855L19.2485 32.8874C18.6933 31.9125 17.3083 31.9125 16.753 32.8874L0.195648 62.0256C-0.359593 63.0005 0.332898 64.2206 1.44338 64.2206H11.3317C12.4359 64.2206 13.4528 63.6231 14.0018 62.6546L24.1895 44.7238H24.1958Z" fill="black"/>
</svg>
