<svg viewBox="0 0 16 22" fill="none" xmlns="http://www.w3.org/2000/svg">
<path id="Vector" d="M6.95453 16.7971H5.30453L5.20703 17.0476H5.8137L5.40286 18.3854H6.0287L6.34536 17.0476H6.91453L6.95453 16.7971Z" fill="currentcolor"/>
<path id="Vector_2" d="M8.93772 16.7971H8.42354L8.44772 17.3705H7.76604L7.79105 16.7971H7.29021L7.10938 18.3854H7.72021L7.75271 17.6705H8.44605L8.47521 18.3854H9.11771L8.93772 16.7971Z" fill="currentcolor"/>
<path id="Vector_3" d="M10.9279 16.7971H9.28125L9.53708 18.3854H11.5438L11.4071 18.0309H10.0654L9.98041 17.6603H10.9921L10.8862 17.3612H9.91208L9.83958 17.0476H11.0254L10.9279 16.7971Z" fill="currentcolor"/>
<path id="Vector_4" d="M1.95141 20.0172L2.28225 19.4549C2.30558 19.4156 2.33974 19.3782 2.38058 19.345C2.42141 19.3117 2.47057 19.2819 2.52308 19.2572C2.57558 19.2325 2.63308 19.2129 2.69141 19.1984C2.74974 19.1848 2.80892 19.1771 2.86725 19.1771C2.92558 19.1771 2.97558 19.1848 3.01892 19.1984C3.06225 19.2121 3.09725 19.2316 3.12225 19.2572C3.14808 19.2819 3.16391 19.3117 3.16808 19.345C3.17308 19.3782 3.16642 19.4156 3.14641 19.4549L2.86391 20.0172H1.95141ZM3.12724 18.7136C2.98392 18.7136 2.83642 18.7315 2.69225 18.7638C2.54725 18.7961 2.40475 18.8439 2.27224 18.9035C2.13807 18.964 2.01225 19.0364 1.90474 19.1191C1.79475 19.2026 1.70224 19.2964 1.63641 19.3969L0.253906 21.5H1.10224L1.67391 20.5252H2.61141L2.12308 21.5H2.96974L3.87475 19.3969C3.91808 19.2964 3.92725 19.2026 3.90892 19.1191C3.89058 19.0373 3.84475 18.964 3.77558 18.9035C3.70725 18.8439 3.61724 18.7961 3.50725 18.7638C3.39891 18.7315 3.27058 18.7136 3.12724 18.7136Z" fill="currentcolor"/>
<path id="Vector_5" d="M13.3507 20.0172L13.0683 19.4514C13.0482 19.4123 13.0424 19.3748 13.0474 19.3415C13.0524 19.3084 13.0683 19.2785 13.094 19.2537C13.1199 19.229 13.1549 19.2094 13.1982 19.1958C13.2415 19.1822 13.2924 19.1745 13.3507 19.1745C13.409 19.1745 13.4674 19.1822 13.5257 19.1958C13.584 19.2094 13.6407 19.229 13.6932 19.2537C13.7457 19.2785 13.794 19.3084 13.8357 19.3415C13.8773 19.3748 13.9107 19.4123 13.934 19.4514L14.2665 20.0172H13.3507ZM13.1073 18.7136C12.9641 18.7136 12.8357 18.7315 12.7274 18.7638C12.6183 18.7961 12.5274 18.8439 12.459 18.9035C12.3898 18.964 12.3441 19.0364 12.3257 19.1191C12.3065 19.2026 12.3166 19.2964 12.3599 19.3969L13.2648 21.5H14.1132L13.6241 20.5252H14.5616L15.1333 21.5H15.9799L14.5974 19.3969C14.5316 19.2964 14.4391 19.2026 14.3291 19.1191C14.2207 19.0373 14.0957 18.964 13.9616 18.9035C13.829 18.8439 13.6866 18.7961 13.5416 18.7638C13.3982 18.7315 13.2515 18.7136 13.1073 18.7136Z" fill="currentcolor"/>
<path id="Vector_6" d="M4.92292 19.7003L5.08792 19.1771H5.72293C5.75459 19.1771 5.78126 19.1796 5.80375 19.1839C5.82626 19.1881 5.84459 19.195 5.85792 19.2043C5.87126 19.2137 5.88043 19.2257 5.88459 19.2393C5.88876 19.2537 5.88876 19.2699 5.88459 19.2895L5.82125 19.5656C5.81626 19.5878 5.80626 19.6074 5.79209 19.6236C5.77792 19.6407 5.7596 19.6543 5.73626 19.6662C5.71293 19.6773 5.68542 19.6858 5.65293 19.6917C5.62042 19.6977 5.58376 19.7003 5.54292 19.7003H4.92292ZM6.12042 18.7681H4.57875L3.53125 21.5H4.35626L4.76126 20.2124H5.43625C5.47875 20.2124 5.51459 20.2158 5.54459 20.2235C5.57458 20.2312 5.59876 20.2431 5.61626 20.2584C5.63459 20.2738 5.64625 20.2933 5.65126 20.3164C5.65709 20.3402 5.65625 20.3675 5.64876 20.399L5.39876 21.4992H6.24543L6.43626 20.2772C6.4421 20.238 6.44292 20.2022 6.43793 20.1698C6.43292 20.1374 6.4221 20.1076 6.40626 20.0812C6.39042 20.0548 6.36876 20.031 6.34126 20.0096C6.31376 19.9884 6.28126 19.9705 6.24292 19.9551C6.28709 19.9372 6.32626 19.9158 6.36126 19.8921C6.39543 19.8682 6.42542 19.8409 6.45043 19.8102C6.47543 19.7804 6.49542 19.7463 6.51126 19.7105C6.5271 19.6747 6.53793 19.6355 6.54376 19.5938L6.62376 19.0808C6.62709 19.057 6.62792 19.0348 6.62376 19.0134C6.62043 18.9922 6.61293 18.9726 6.60209 18.9539C6.59127 18.935 6.57626 18.9171 6.55792 18.901C6.53959 18.8848 6.51709 18.8694 6.49126 18.855C6.46543 18.8405 6.43793 18.8277 6.40959 18.8175C6.38125 18.8064 6.35126 18.7979 6.32042 18.791C6.28959 18.7842 6.2571 18.7782 6.22375 18.7749C6.19209 18.7698 6.15709 18.7681 6.12042 18.7681Z" fill="currentcolor"/>
<path id="Vector_7" d="M9.20417 18.7681H7.11L6.8125 21.5H9.52667L9.45168 20.8609H7.66333L7.68917 20.2124H9.01834L8.975 19.7003H7.70999L7.73083 19.1771H9.2525L9.20417 18.7681Z" fill="currentcolor"/>
<path id="Vector_8" d="M11.6534 18.7681H10.9667L11.3301 19.9456L10.3451 18.7681H9.63672L10.0876 21.5H10.9792L10.6142 19.9781L11.8209 21.5H12.7009L11.6534 18.7681Z" fill="currentcolor"/>
<path id="Vector_9" d="M14.5851 7.11512V18.4638H14.3043V8.26464C14.3043 4.77431 11.5293 1.9367 8.11762 1.9367C4.70594 1.9367 1.92927 4.77431 1.92927 8.26464V18.4647H1.64844V7.11512C1.64844 3.46117 4.54428 0.5 8.11762 0.5C11.6893 0.5 14.5851 3.46117 14.5851 7.11512Z" fill="currentcolor"/>
<path id="Vector_10" d="M13.4635 7.76274V17.391H13.1827V8.73929C13.1827 5.88293 10.911 3.56001 8.11928 3.56001C5.32761 3.56001 3.05427 5.88293 3.05427 8.73929V17.391H2.77344V7.76274C2.77344 4.74362 5.16677 2.2963 8.11928 2.2963C11.0701 2.2963 13.4635 4.74362 13.4635 7.76274Z" fill="currentcolor"/>
<path id="Vector_11" d="M12.341 8.41036V16.3181H12.0601V9.21478C12.0601 6.99241 10.2926 5.18504 8.12011 5.18504C5.94762 5.18504 4.17928 6.99241 4.17928 9.21478V16.3181H3.89844V8.41036C3.89844 6.02609 5.78928 4.09346 8.12011 4.09346C10.4501 4.0926 12.341 6.02609 12.341 8.41036Z" fill="currentcolor"/>
<path id="Vector_12" d="M11.2145 9.05799V15.2453H10.9337V9.69027C10.9337 8.10104 9.67038 6.80921 8.11787 6.80921C6.56536 6.80921 5.30037 8.10104 5.30037 9.69027V15.2453H5.01953V9.05799C5.01953 7.30856 6.40704 5.88976 8.11787 5.88976C9.82705 5.8889 11.2145 7.30856 11.2145 9.05799Z" fill="currentcolor"/>
<path id="Vector_13" d="M10.0929 9.70475V14.1716H9.81204V10.1649C9.81204 9.20965 9.05288 8.43251 8.11955 8.43251C7.1862 8.43251 6.42537 9.20881 6.42537 10.1649V14.1716H6.14453V9.70475C6.14453 8.59015 7.02954 7.6852 8.11955 7.6852C9.20788 7.68604 10.0929 8.59015 10.0929 9.70475Z" fill="currentcolor"/>
<path id="Vector_14" d="M8.97037 10.3524V13.0988H8.68953V10.6404C8.68953 10.3183 8.4337 10.0575 8.12037 10.0575C7.80703 10.0575 7.55036 10.3191 7.55036 10.6404V13.0988H7.26953V10.3524C7.26953 9.87262 7.65119 9.48235 8.12037 9.48235C8.58953 9.48235 8.97037 9.87262 8.97037 10.3524Z" fill="currentcolor"/>
</svg>
